<mxfile host="www.draw.io" modified="2023-04-12T08:48:24.112Z" agent="Mozilla/5.0 (Windows NT 10.0; Win64; x64) AppleWebKit/537.36 (KHTML, like Gecko) Chrome/112.0.0.0 Safari/537.36 Edg/112.0.1722.34" etag="w-4X_hNTryLJQJwBerXP" version="21.1.6" type="device">
  <diagram name="Page-1" id="WYP29HHZ_66D6gdMhqA1">
    <mxGraphModel dx="1233" dy="573" grid="1" gridSize="10" guides="1" tooltips="1" connect="1" arrows="1" fold="1" page="1" pageScale="1" pageWidth="850" pageHeight="1100" math="0" shadow="0">
      <root>
        <mxCell id="0" />
        <mxCell id="1" parent="0" />
        <mxCell id="jZqsmrPoe0Mezcg47HMA-1" style="edgeStyle=orthogonalEdgeStyle;rounded=0;orthogonalLoop=1;jettySize=auto;html=1;entryX=0.5;entryY=0;entryDx=0;entryDy=0;" parent="1" source="jZqsmrPoe0Mezcg47HMA-2" target="jZqsmrPoe0Mezcg47HMA-4" edge="1">
          <mxGeometry relative="1" as="geometry" />
        </mxCell>
        <mxCell id="jZqsmrPoe0Mezcg47HMA-2" value="&lt;b&gt;Login&lt;/b&gt;" style="rounded=1;whiteSpace=wrap;html=1;fontSize=12;glass=0;strokeWidth=1;shadow=0;" parent="1" vertex="1">
          <mxGeometry x="184" y="310" width="70" height="40" as="geometry" />
        </mxCell>
        <mxCell id="jZqsmrPoe0Mezcg47HMA-3" style="edgeStyle=orthogonalEdgeStyle;rounded=0;orthogonalLoop=1;jettySize=auto;html=1;entryX=0.5;entryY=0;entryDx=0;entryDy=0;" parent="1" source="jZqsmrPoe0Mezcg47HMA-4" target="jZqsmrPoe0Mezcg47HMA-7" edge="1">
          <mxGeometry relative="1" as="geometry" />
        </mxCell>
        <mxCell id="jZqsmrPoe0Mezcg47HMA-4" value="Pilih Menu" style="rounded=0;whiteSpace=wrap;html=1;" parent="1" vertex="1">
          <mxGeometry x="159" y="390" width="120" height="40" as="geometry" />
        </mxCell>
        <mxCell id="jZqsmrPoe0Mezcg47HMA-6" style="edgeStyle=orthogonalEdgeStyle;rounded=0;orthogonalLoop=1;jettySize=auto;html=1;" parent="1" source="jZqsmrPoe0Mezcg47HMA-7" target="jZqsmrPoe0Mezcg47HMA-27" edge="1">
          <mxGeometry relative="1" as="geometry">
            <mxPoint x="350" y="530" as="targetPoint" />
          </mxGeometry>
        </mxCell>
        <mxCell id="jZqsmrPoe0Mezcg47HMA-75" style="edgeStyle=orthogonalEdgeStyle;rounded=0;orthogonalLoop=1;jettySize=auto;html=1;entryX=0.5;entryY=0;entryDx=0;entryDy=0;" parent="1" source="jZqsmrPoe0Mezcg47HMA-7" target="jZqsmrPoe0Mezcg47HMA-74" edge="1">
          <mxGeometry relative="1" as="geometry" />
        </mxCell>
        <mxCell id="jZqsmrPoe0Mezcg47HMA-7" value="&lt;b&gt;Dashboard&lt;/b&gt;" style="rhombus;whiteSpace=wrap;html=1;" parent="1" vertex="1">
          <mxGeometry x="128" y="490" width="180" height="80" as="geometry" />
        </mxCell>
        <mxCell id="jZqsmrPoe0Mezcg47HMA-14" style="edgeStyle=orthogonalEdgeStyle;rounded=0;orthogonalLoop=1;jettySize=auto;html=1;entryX=0.5;entryY=0;entryDx=0;entryDy=0;" parent="1" target="jZqsmrPoe0Mezcg47HMA-19" edge="1">
          <mxGeometry relative="1" as="geometry">
            <mxPoint x="220" y="720" as="sourcePoint" />
          </mxGeometry>
        </mxCell>
        <mxCell id="jZqsmrPoe0Mezcg47HMA-17" style="edgeStyle=orthogonalEdgeStyle;rounded=0;orthogonalLoop=1;jettySize=auto;html=1;entryX=0.5;entryY=0;entryDx=0;entryDy=0;" parent="1" source="jZqsmrPoe0Mezcg47HMA-19" target="jZqsmrPoe0Mezcg47HMA-22" edge="1">
          <mxGeometry relative="1" as="geometry" />
        </mxCell>
        <mxCell id="jZqsmrPoe0Mezcg47HMA-18" style="edgeStyle=orthogonalEdgeStyle;rounded=0;orthogonalLoop=1;jettySize=auto;html=1;entryX=0;entryY=0.5;entryDx=0;entryDy=0;" parent="1" source="jZqsmrPoe0Mezcg47HMA-19" target="jZqsmrPoe0Mezcg47HMA-43" edge="1">
          <mxGeometry relative="1" as="geometry" />
        </mxCell>
        <mxCell id="jZqsmrPoe0Mezcg47HMA-19" value="&lt;b&gt;Cari Surat&lt;/b&gt;" style="rhombus;whiteSpace=wrap;html=1;" parent="1" vertex="1">
          <mxGeometry x="140" y="790" width="160" height="80" as="geometry" />
        </mxCell>
        <mxCell id="jZqsmrPoe0Mezcg47HMA-20" style="edgeStyle=orthogonalEdgeStyle;rounded=0;orthogonalLoop=1;jettySize=auto;html=1;entryX=0.5;entryY=0;entryDx=0;entryDy=0;" parent="1" source="jZqsmrPoe0Mezcg47HMA-22" edge="1">
          <mxGeometry relative="1" as="geometry">
            <mxPoint x="221.25" y="1169" as="targetPoint" />
          </mxGeometry>
        </mxCell>
        <mxCell id="jZqsmrPoe0Mezcg47HMA-21" style="edgeStyle=orthogonalEdgeStyle;rounded=0;orthogonalLoop=1;jettySize=auto;html=1;" parent="1" source="jZqsmrPoe0Mezcg47HMA-22" target="jZqsmrPoe0Mezcg47HMA-49" edge="1">
          <mxGeometry relative="1" as="geometry" />
        </mxCell>
        <mxCell id="jZqsmrPoe0Mezcg47HMA-22" value="&lt;b&gt;Ubah Profil&lt;/b&gt;" style="rhombus;whiteSpace=wrap;html=1;" parent="1" vertex="1">
          <mxGeometry x="138" y="920" width="164" height="80" as="geometry" />
        </mxCell>
        <mxCell id="jZqsmrPoe0Mezcg47HMA-26" style="edgeStyle=orthogonalEdgeStyle;rounded=0;orthogonalLoop=1;jettySize=auto;html=1;" parent="1" source="jZqsmrPoe0Mezcg47HMA-27" target="jZqsmrPoe0Mezcg47HMA-67" edge="1">
          <mxGeometry relative="1" as="geometry">
            <mxPoint x="1250" y="1480" as="targetPoint" />
            <Array as="points">
              <mxPoint x="1130" y="530" />
              <mxPoint x="1130" y="1280" />
            </Array>
          </mxGeometry>
        </mxCell>
        <mxCell id="jZqsmrPoe0Mezcg47HMA-27" value="Tabel&amp;nbsp; Surat Masuk, Surat Keluar, Surat Disposisi" style="shape=parallelogram;perimeter=parallelogramPerimeter;whiteSpace=wrap;html=1;fixedSize=1;" parent="1" vertex="1">
          <mxGeometry x="344" y="500" width="166" height="60" as="geometry" />
        </mxCell>
        <mxCell id="jZqsmrPoe0Mezcg47HMA-42" style="edgeStyle=orthogonalEdgeStyle;rounded=0;orthogonalLoop=1;jettySize=auto;html=1;entryX=0;entryY=0.5;entryDx=0;entryDy=0;" parent="1" source="jZqsmrPoe0Mezcg47HMA-43" target="jZqsmrPoe0Mezcg47HMA-45" edge="1">
          <mxGeometry relative="1" as="geometry" />
        </mxCell>
        <mxCell id="jZqsmrPoe0Mezcg47HMA-43" value="Input informasi Surat" style="shape=parallelogram;perimeter=parallelogramPerimeter;whiteSpace=wrap;html=1;fixedSize=1;" parent="1" vertex="1">
          <mxGeometry x="330" y="800" width="146" height="60" as="geometry" />
        </mxCell>
        <mxCell id="jZqsmrPoe0Mezcg47HMA-44" style="edgeStyle=orthogonalEdgeStyle;rounded=0;orthogonalLoop=1;jettySize=auto;html=1;entryX=0;entryY=0.5;entryDx=0;entryDy=0;" parent="1" source="jZqsmrPoe0Mezcg47HMA-45" target="jZqsmrPoe0Mezcg47HMA-46" edge="1">
          <mxGeometry relative="1" as="geometry" />
        </mxCell>
        <mxCell id="jZqsmrPoe0Mezcg47HMA-45" value="Data Surat &lt;br&gt;Ada?" style="rhombus;whiteSpace=wrap;html=1;" parent="1" vertex="1">
          <mxGeometry x="530" y="790" width="100" height="80" as="geometry" />
        </mxCell>
        <mxCell id="jZqsmrPoe0Mezcg47HMA-46" value="Hasil Pencarian Surat" style="shape=parallelogram;perimeter=parallelogramPerimeter;whiteSpace=wrap;html=1;fixedSize=1;" parent="1" vertex="1">
          <mxGeometry x="677" y="800" width="166" height="60" as="geometry" />
        </mxCell>
        <mxCell id="jZqsmrPoe0Mezcg47HMA-48" style="edgeStyle=orthogonalEdgeStyle;rounded=0;orthogonalLoop=1;jettySize=auto;html=1;entryX=0;entryY=0.5;entryDx=0;entryDy=0;" parent="1" source="jZqsmrPoe0Mezcg47HMA-49" target="jZqsmrPoe0Mezcg47HMA-51" edge="1">
          <mxGeometry relative="1" as="geometry" />
        </mxCell>
        <mxCell id="jZqsmrPoe0Mezcg47HMA-49" value="Isi Data" style="shape=parallelogram;perimeter=parallelogramPerimeter;whiteSpace=wrap;html=1;fixedSize=1;" parent="1" vertex="1">
          <mxGeometry x="330" y="930" width="146" height="60" as="geometry" />
        </mxCell>
        <mxCell id="jZqsmrPoe0Mezcg47HMA-50" style="edgeStyle=orthogonalEdgeStyle;rounded=0;orthogonalLoop=1;jettySize=auto;html=1;" parent="1" source="jZqsmrPoe0Mezcg47HMA-51" target="jZqsmrPoe0Mezcg47HMA-54" edge="1">
          <mxGeometry relative="1" as="geometry" />
        </mxCell>
        <mxCell id="jZqsmrPoe0Mezcg47HMA-51" value="Upload Foto" style="rounded=0;whiteSpace=wrap;html=1;" parent="1" vertex="1">
          <mxGeometry x="530" y="940" width="120" height="40" as="geometry" />
        </mxCell>
        <mxCell id="jZqsmrPoe0Mezcg47HMA-52" style="edgeStyle=orthogonalEdgeStyle;rounded=0;orthogonalLoop=1;jettySize=auto;html=1;entryX=0;entryY=0.5;entryDx=0;entryDy=0;" parent="1" source="jZqsmrPoe0Mezcg47HMA-54" target="jZqsmrPoe0Mezcg47HMA-55" edge="1">
          <mxGeometry relative="1" as="geometry" />
        </mxCell>
        <mxCell id="jZqsmrPoe0Mezcg47HMA-53" style="edgeStyle=orthogonalEdgeStyle;rounded=0;orthogonalLoop=1;jettySize=auto;html=1;entryX=0.5;entryY=1;entryDx=0;entryDy=0;entryPerimeter=0;" parent="1" source="jZqsmrPoe0Mezcg47HMA-54" target="jZqsmrPoe0Mezcg47HMA-56" edge="1">
          <mxGeometry relative="1" as="geometry" />
        </mxCell>
        <mxCell id="jZqsmrPoe0Mezcg47HMA-54" value="Data Valid" style="rhombus;whiteSpace=wrap;html=1;" parent="1" vertex="1">
          <mxGeometry x="700" y="920" width="100" height="80" as="geometry" />
        </mxCell>
        <mxCell id="jZqsmrPoe0Mezcg47HMA-55" value="Profil Terubah" style="shape=parallelogram;perimeter=parallelogramPerimeter;whiteSpace=wrap;html=1;fixedSize=1;" parent="1" vertex="1">
          <mxGeometry x="850" y="930" width="146" height="60" as="geometry" />
        </mxCell>
        <mxCell id="jZqsmrPoe0Mezcg47HMA-56" value="" style="shape=cylinder3;whiteSpace=wrap;html=1;boundedLbl=1;backgroundOutline=1;size=15;lid=0;rotation=90;" parent="1" vertex="1">
          <mxGeometry x="810" y="1006" width="70" height="140" as="geometry" />
        </mxCell>
        <mxCell id="jZqsmrPoe0Mezcg47HMA-57" style="edgeStyle=orthogonalEdgeStyle;rounded=0;orthogonalLoop=1;jettySize=auto;html=1;entryX=0.5;entryY=0;entryDx=0;entryDy=0;" parent="1" target="jZqsmrPoe0Mezcg47HMA-49" edge="1">
          <mxGeometry relative="1" as="geometry">
            <mxPoint x="390" y="920" as="targetPoint" />
            <mxPoint x="900" y="1080" as="sourcePoint" />
            <Array as="points">
              <mxPoint x="1060" y="1076" />
              <mxPoint x="1060" y="880" />
              <mxPoint x="403" y="880" />
            </Array>
          </mxGeometry>
        </mxCell>
        <mxCell id="jZqsmrPoe0Mezcg47HMA-58" value="Menampilkan&amp;nbsp;&lt;br&gt;Pesan Gagal&lt;br&gt;Ubah Profill" style="text;html=1;strokeColor=none;fillColor=none;align=center;verticalAlign=middle;whiteSpace=wrap;rounded=0;" parent="1" vertex="1">
          <mxGeometry x="785" y="1061" width="120" height="30" as="geometry" />
        </mxCell>
        <mxCell id="jZqsmrPoe0Mezcg47HMA-61" style="edgeStyle=orthogonalEdgeStyle;rounded=0;orthogonalLoop=1;jettySize=auto;html=1;entryX=0.5;entryY=1;entryDx=0;entryDy=0;" parent="1" edge="1">
          <mxGeometry relative="1" as="geometry">
            <mxPoint x="425" y="1240" as="targetPoint" />
            <Array as="points">
              <mxPoint x="600" y="1340" />
              <mxPoint x="425" y="1340" />
            </Array>
          </mxGeometry>
        </mxCell>
        <mxCell id="jZqsmrPoe0Mezcg47HMA-65" style="edgeStyle=orthogonalEdgeStyle;rounded=0;orthogonalLoop=1;jettySize=auto;html=1;entryX=0.5;entryY=0;entryDx=0;entryDy=0;entryPerimeter=0;" parent="1" source="jZqsmrPoe0Mezcg47HMA-66" target="jZqsmrPoe0Mezcg47HMA-67" edge="1">
          <mxGeometry relative="1" as="geometry" />
        </mxCell>
        <mxCell id="jZqsmrPoe0Mezcg47HMA-88" style="edgeStyle=orthogonalEdgeStyle;rounded=0;orthogonalLoop=1;jettySize=auto;html=1;entryX=0;entryY=0.5;entryDx=0;entryDy=0;" parent="1" source="jZqsmrPoe0Mezcg47HMA-66" target="jZqsmrPoe0Mezcg47HMA-4" edge="1">
          <mxGeometry relative="1" as="geometry">
            <Array as="points">
              <mxPoint x="30" y="1180" />
              <mxPoint x="30" y="410" />
            </Array>
          </mxGeometry>
        </mxCell>
        <mxCell id="jZqsmrPoe0Mezcg47HMA-66" value="&lt;b&gt;Logout&lt;/b&gt;" style="rounded=1;whiteSpace=wrap;html=1;fontSize=12;glass=0;strokeWidth=1;shadow=0;" parent="1" vertex="1">
          <mxGeometry x="186.25" y="1160" width="70" height="40" as="geometry" />
        </mxCell>
        <mxCell id="jZqsmrPoe0Mezcg47HMA-67" value="Selesai" style="strokeWidth=2;html=1;shape=mxgraph.flowchart.terminator;whiteSpace=wrap;" parent="1" vertex="1">
          <mxGeometry x="147" y="1250" width="150" height="60" as="geometry" />
        </mxCell>
        <mxCell id="jZqsmrPoe0Mezcg47HMA-69" value="" style="endArrow=none;html=1;rounded=0;exitX=1;exitY=0.5;exitDx=0;exitDy=0;" parent="1" source="jZqsmrPoe0Mezcg47HMA-55" edge="1">
          <mxGeometry width="50" height="50" relative="1" as="geometry">
            <mxPoint x="750" y="1270" as="sourcePoint" />
            <mxPoint x="1130" y="960" as="targetPoint" />
          </mxGeometry>
        </mxCell>
        <mxCell id="jZqsmrPoe0Mezcg47HMA-70" value="" style="endArrow=none;html=1;rounded=0;exitX=1;exitY=0.5;exitDx=0;exitDy=0;" parent="1" source="jZqsmrPoe0Mezcg47HMA-46" edge="1">
          <mxGeometry width="50" height="50" relative="1" as="geometry">
            <mxPoint x="750" y="1270" as="sourcePoint" />
            <mxPoint x="1130" y="830" as="targetPoint" />
          </mxGeometry>
        </mxCell>
        <mxCell id="jZqsmrPoe0Mezcg47HMA-77" style="edgeStyle=orthogonalEdgeStyle;rounded=0;orthogonalLoop=1;jettySize=auto;html=1;entryX=0;entryY=0.5;entryDx=0;entryDy=0;" parent="1" source="jZqsmrPoe0Mezcg47HMA-74" target="jZqsmrPoe0Mezcg47HMA-76" edge="1">
          <mxGeometry relative="1" as="geometry" />
        </mxCell>
        <mxCell id="jZqsmrPoe0Mezcg47HMA-74" value="&lt;b&gt;Lihat Surat&lt;/b&gt;" style="rhombus;whiteSpace=wrap;html=1;" parent="1" vertex="1">
          <mxGeometry x="129.5" y="640" width="178" height="80" as="geometry" />
        </mxCell>
        <mxCell id="jZqsmrPoe0Mezcg47HMA-76" value="List Surat masuk&lt;br&gt;&amp;nbsp;dan Surat Keluar" style="shape=parallelogram;perimeter=parallelogramPerimeter;whiteSpace=wrap;html=1;fixedSize=1;" parent="1" vertex="1">
          <mxGeometry x="344" y="651" width="146" height="60" as="geometry" />
        </mxCell>
        <mxCell id="jZqsmrPoe0Mezcg47HMA-78" value="" style="endArrow=none;html=1;rounded=0;exitX=1;exitY=0.5;exitDx=0;exitDy=0;" parent="1" source="jZqsmrPoe0Mezcg47HMA-76" edge="1">
          <mxGeometry width="50" height="50" relative="1" as="geometry">
            <mxPoint x="450" y="830" as="sourcePoint" />
            <mxPoint x="1130" y="680" as="targetPoint" />
          </mxGeometry>
        </mxCell>
        <mxCell id="jZqsmrPoe0Mezcg47HMA-79" value="YA" style="text;html=1;strokeColor=none;fillColor=none;align=center;verticalAlign=middle;whiteSpace=wrap;rounded=0;" parent="1" vertex="1">
          <mxGeometry x="297" y="490" width="60" height="30" as="geometry" />
        </mxCell>
        <mxCell id="jZqsmrPoe0Mezcg47HMA-80" value="YA" style="text;html=1;strokeColor=none;fillColor=none;align=center;verticalAlign=middle;whiteSpace=wrap;rounded=0;" parent="1" vertex="1">
          <mxGeometry x="286" y="641" width="60" height="30" as="geometry" />
        </mxCell>
        <mxCell id="jZqsmrPoe0Mezcg47HMA-81" value="YA" style="text;html=1;strokeColor=none;fillColor=none;align=center;verticalAlign=middle;whiteSpace=wrap;rounded=0;" parent="1" vertex="1">
          <mxGeometry x="285" y="790" width="60" height="30" as="geometry" />
        </mxCell>
        <mxCell id="jZqsmrPoe0Mezcg47HMA-85" value="YA" style="text;html=1;strokeColor=none;fillColor=none;align=center;verticalAlign=middle;whiteSpace=wrap;rounded=0;" parent="1" vertex="1">
          <mxGeometry x="286" y="930" width="60" height="30" as="geometry" />
        </mxCell>
        <mxCell id="jZqsmrPoe0Mezcg47HMA-86" value="YA" style="text;html=1;strokeColor=none;fillColor=none;align=center;verticalAlign=middle;whiteSpace=wrap;rounded=0;" parent="1" vertex="1">
          <mxGeometry x="226" y="1210" width="60" height="30" as="geometry" />
        </mxCell>
        <mxCell id="jZqsmrPoe0Mezcg47HMA-87" value="TIDAK" style="text;html=1;strokeColor=none;fillColor=none;align=center;verticalAlign=middle;whiteSpace=wrap;rounded=0;" parent="1" vertex="1">
          <mxGeometry x="125" y="1130" width="60" height="30" as="geometry" />
        </mxCell>
        <mxCell id="jZqsmrPoe0Mezcg47HMA-89" value="TIDAK" style="text;html=1;strokeColor=none;fillColor=none;align=center;verticalAlign=middle;whiteSpace=wrap;rounded=0;" parent="1" vertex="1">
          <mxGeometry x="210" y="1070" width="60" height="30" as="geometry" />
        </mxCell>
        <mxCell id="jZqsmrPoe0Mezcg47HMA-90" value="TIDAK" style="text;html=1;strokeColor=none;fillColor=none;align=center;verticalAlign=middle;whiteSpace=wrap;rounded=0;" parent="1" vertex="1">
          <mxGeometry x="219" y="880" width="60" height="30" as="geometry" />
        </mxCell>
        <mxCell id="jZqsmrPoe0Mezcg47HMA-91" value="TIDAK" style="text;html=1;strokeColor=none;fillColor=none;align=center;verticalAlign=middle;whiteSpace=wrap;rounded=0;" parent="1" vertex="1">
          <mxGeometry x="219" y="740" width="60" height="30" as="geometry" />
        </mxCell>
        <mxCell id="jZqsmrPoe0Mezcg47HMA-92" value="TIDAK" style="text;html=1;strokeColor=none;fillColor=none;align=center;verticalAlign=middle;whiteSpace=wrap;rounded=0;" parent="1" vertex="1">
          <mxGeometry x="219" y="590" width="60" height="30" as="geometry" />
        </mxCell>
        <mxCell id="jZqsmrPoe0Mezcg47HMA-93" value="TIDAK" style="text;html=1;strokeColor=none;fillColor=none;align=center;verticalAlign=middle;whiteSpace=wrap;rounded=0;" parent="1" vertex="1">
          <mxGeometry x="219" y="440" width="60" height="30" as="geometry" />
        </mxCell>
        <mxCell id="Wan7I9AOKI3ZKSlzliXY-3" style="edgeStyle=orthogonalEdgeStyle;rounded=0;orthogonalLoop=1;jettySize=auto;html=1;" edge="1" parent="1" source="Wan7I9AOKI3ZKSlzliXY-2" target="jZqsmrPoe0Mezcg47HMA-2">
          <mxGeometry relative="1" as="geometry" />
        </mxCell>
        <mxCell id="Wan7I9AOKI3ZKSlzliXY-2" value="A&lt;br&gt;" style="shape=offPageConnector;whiteSpace=wrap;html=1;size=0.5;" vertex="1" parent="1">
          <mxGeometry x="190.88" y="230" width="56.25" height="50" as="geometry" />
        </mxCell>
      </root>
    </mxGraphModel>
  </diagram>
</mxfile>
